<svg width="24" height="24" fill="none" xmlns="http://www.w3.org/2000/svg"><path fill-rule="evenodd" clip-rule="evenodd" d="M21 17h-8v1a2 2 0 0 0 2 2h4a2 2 0 0 0 2-2v-1zm-9-1v2a3 3 0 0 0 3 3h4a3 3 0 0 0 3-3v-2H12z" fill="#B5A191"/><path fill-rule="evenodd" clip-rule="evenodd" d="m21.146 21.854-1.5-1.5.708-.708 1.5 1.5-.708.708zM18 14a1.5 1.5 0 0 1 3 0v2h-1v-2a.5.5 0 0 0-1 0v.5h-1V14zM14.354 20.354l-1.5 1.5-.708-.708 1.5-1.5.708.708zM9.5 8a1 1 0 0 1 1 1h1a2 2 0 1 0-4 0h1a1 1 0 0 1 1-1zM11.5 9v1h-4V9h4zM9 15v-4h1v4H9zM6.553 12.776l1-2 .894.448-1 2-.894-.448zM11.553 13.224l-1-2 .894-.448 1 2-.894.448z" fill="#B5A191"/><path fill-rule="evenodd" clip-rule="evenodd" d="M2 2h18v9.5h-.947V3H2.947v18H11v1H2V2z" fill="#B5A191"/><path fill-rule="evenodd" clip-rule="evenodd" d="M4.5 7.25a2.75 2.75 0 0 1 5.5 0v.25H9v-.25a1.75 1.75 0 1 0-3.5 0V21h-1V7.25z" fill="#B5A191"/><path d="M14 3h1v12h-1V3z" fill="#B5A191"/></svg>