<svg width="24" height="24" fill="none" xmlns="http://www.w3.org/2000/svg"><path fill-rule="evenodd" clip-rule="evenodd" d="M21 3H3v18h18V3zM2 2v20h20V2H2z" fill="#B5A191"/><path fill-rule="evenodd" clip-rule="evenodd" d="M13.137 13.5h4.726L16 16.751V18h1v1h-3v-1h1v-1.249L13.137 13.5zm2.363 2.112.637-1.112h-1.274l.637 1.112zM8 11.35a2.5 2.5 0 0 0-2 2.45V19h5v-5.2a2.5 2.5 0 0 0-2-2.45V10H8v1.35zm.5.95A1.5 1.5 0 0 0 7 13.8V18h3v-4.2a1.5 1.5 0 0 0-1.5-1.5z" fill="#B5A191"/><path d="M5.573 5.714h1.95V5h-1.95v.714zm0 1.577h1.888v-.68H5.573v.68zM5 5v4h.86V5H5zM9.455 7.137 10.764 9h1.053l-1.421-1.863h-.94zM8.465 5v4h.89V5h-.89zm.542.697h.866c.158 0 .293.025.405.074a.538.538 0 0 1 .361.526.564.564 0 0 1-.093.326.613.613 0 0 1-.268.206 1.072 1.072 0 0 1-.405.068h-.866v.652h.922c.345 0 .637-.054.878-.16.241-.107.426-.256.555-.446.128-.194.193-.417.193-.669 0-.255-.065-.478-.193-.668a1.268 1.268 0 0 0-.555-.446c-.24-.107-.534-.16-.878-.16h-.922v.697zM13.026 9h2.199v-.691h-2.2V9zm0-3.309h2.199V5h-2.2v.691zm0 1.526H15.1v-.68h-2.074v.68zM12.453 5v4h.86V5h-.86zM16.8 9H19v-.691h-2.2V9zm0-3.309H19V5h-2.2v.691zm0 1.526h2.075v-.68h-2.074v.68zM16.229 5v4h.86V5h-.86z" fill="#B5A191"/></svg>