<svg width="24" height="24" fill="none" xmlns="http://www.w3.org/2000/svg"><path fill-rule="evenodd" clip-rule="evenodd" d="M19 10.807V15h-2.407l2.517 2.518A9 9 0 0 0 12 3c-2.08 0-3.994.705-5.518 1.89l5.918 5.917H19zM5.726 5.547l12.727 12.727A9 9 0 0 1 3 12a8.97 8.97 0 0 1 2.726-6.453zM5.386 4.5A9.958 9.958 0 0 1 12 2c5.522 0 9.999 4.477 9.999 10s-4.477 10-10 10S2 17.523 2 12a9.976 9.976 0 0 1 3.385-7.5zM17 14h1v-2.193h-1V14zm-1-2.193h-2.6L15.592 14H16v-2.193zm-11.115-1H9.5v1H5.885V14H13v1H4.885v-4.193zM17 6v3.5h-1V6h1zm1.5 1.5v2h-1v-2h1z" fill="#B5A191"/></svg>